  0
SECTION
  2
HEADER
  9
$ACADVER
  1
AC1009
  9
$EXTMIN
 10
0.0
 20
0.0
 30
0.0
  9
$EXTMAX
 10
1000.0
 20
1000.0
 30
0.0
  9
$FILLMODE
 70
 0
  9
$SPLFRAME
 70
 1
  0
ENDSEC
  0
SECTION
  2
TABLES
  0
TABLE
  2
LAYER
 70
1
  0
LAYER
  2
0
 70
     0
 62
     7
  6
CONTINUOUS
  0
ENDTAB
  0
ENDSEC
  0
SECTION
  2
ENTITIES
  0
LINE
  8
0
 62
     0
 10
2.80757
 20
1.00071
 30
0.0
 11
2.76232
 21
0.984483
 31
0.0
  0
LINE
  8
0
 62
     0
 10
2.76232
 20
0.984483
 30
0.0
 11
2.72314
 21
0.970053
 31
0.0
  0
LINE
  8
0
 62
     0
 10
2.72314
 20
0.970053
 30
0.0
 11
2.50706
 21
0.90039
 31
0.0
  0
LINE
  8
0
 62
     0
 10
2.50706
 20
0.90039
 30
0.0
 11
2.28103
 21
0.873915
 31
0.0
  0
LINE
  8
0
 62
     0
 10
2.28103
 20
0.873915
 30
0.0
 11
2.1359
 21
0.900608
 31
0.0
  0
LINE
  8
0
 62
     0
 10
2.1359
 20
0.900608
 30
0.0
 11
2.02599
 21
0.971029
 31
0.0
  0
LINE
  8
0
 62
     0
 10
2.02599
 20
0.971029
 30
0.0
 11
1.95628
 21
1.08105
 31
0.0
  0
LINE
  8
0
 62
     0
 10
1.95628
 20
1.08105
 30
0.0
 11
1.93175
 21
1.22645
 31
0.0
  0
LINE
  8
0
 62
     0
 10
1.93175
 20
1.22645
 30
0.0
 11
1.93169
 21
2.12169
 31
0.0
  0
LINE
  8
0
 62
     0
 10
1.93169
 20
2.12169
 30
0.0
 11
1.93522
 21
2.1951
 31
0.0
  0
LINE
  8
0
 62
     0
 10
1.93522
 20
2.1951
 30
0.0
 11
2.72542
 21
2.1951
 31
0.0
  0
LINE
  8
0
 62
     0
 10
2.72542
 20
2.1951
 30
0.0
 11
2.72542
 21
2.69407
 31
0.0
  0
LINE
  8
0
 62
     0
 10
2.72542
 20
2.69407
 30
0.0
 11
1.92692
 21
2.69407
 31
0.0
  0
LINE
  8
0
 62
     0
 10
1.92692
 20
2.69407
 30
0.0
 11
1.92692
 21
3.48242
 31
0.0
  0
LINE
  8
0
 62
     0
 10
1.92692
 20
3.48242
 30
0.0
 11
1.54372
 21
3.48242
 31
0.0
  0
LINE
  8
0
 62
     0
 10
1.54372
 20
3.48242
 30
0.0
 11
1.49729
 21
3.30171
 31
0.0
  0
LINE
  8
0
 62
     0
 10
1.49729
 20
3.30171
 30
0.0
 11
1.44293
 21
3.13194
 31
0.0
  0
LINE
  8
0
 62
     0
 10
1.44293
 20
3.13194
 30
0.0
 11
1.35498
 21
2.9725
 31
0.0
  0
LINE
  8
0
 62
     0
 10
1.35498
 20
2.9725
 30
0.0
 11
1.23942
 21
2.83914
 31
0.0
  0
LINE
  8
0
 62
     0
 10
1.23942
 20
2.83914
 30
0.0
 11
1.10091
 21
2.72808
 31
0.0
  0
LINE
  8
0
 62
     0
 10
1.10091
 20
2.72808
 30
0.0
 11
0.944282
 21
2.63542
 31
0.0
  0
LINE
  8
0
 62
     0
 10
0.944282
 20
2.63542
 30
0.0
 11
0.927083
 21
2.62608
 31
0.0
  0
LINE
  8
0
 62
     0
 10
0.927083
 20
2.62608
 30
0.0
 11
0.909614
 21
2.6149
 31
0.0
  0
LINE
  8
0
 62
     0
 10
0.909614
 20
2.6149
 30
0.0
 11
0.895996
 21
2.60281
 31
0.0
  0
LINE
  8
0
 62
     0
 10
0.895996
 20
2.60281
 30
0.0
 11
0.8903
 21
2.59071
 31
0.0
  0
LINE
  8
0
 62
     0
 10
0.8903
 20
2.59071
 30
0.0
 11
0.887804
 21
2.19108
 31
0.0
  0
LINE
  8
0
 62
     0
 10
0.887804
 20
2.19108
 30
0.0
 11
1.28022
 21
2.19108
 31
0.0
  0
LINE
  8
0
 62
     0
 10
1.28022
 20
2.19108
 30
0.0
 11
1.28022
 21
2.04471
 31
0.0
  0
LINE
  8
0
 62
     0
 10
1.28022
 20
2.04471
 30
0.0
 11
1.28141
 21
0.955078
 31
0.0
  0
LINE
  8
0
 62
     0
 10
1.28141
 20
0.955078
 30
0.0
 11
1.30138
 21
0.802626
 31
0.0
  0
LINE
  8
0
 62
     0
 10
1.30138
 20
0.802626
 30
0.0
 11
1.35807
 21
0.671929
 31
0.0
  0
LINE
  8
0
 62
     0
 10
1.35807
 20
0.671929
 30
0.0
 11
1.45204
 21
0.564888
 31
0.0
  0
LINE
  8
0
 62
     0
 10
1.45204
 20
0.564888
 30
0.0
 11
1.58376
 21
0.483182
 31
0.0
  0
LINE
  8
0
 62
     0
 10
1.58376
 20
0.483182
 30
0.0
 11
1.68664
 21
0.443143
 31
0.0
  0
LINE
  8
0
 62
     0
 10
1.68664
 20
0.443143
 30
0.0
 11
1.79351
 21
0.417806
 31
0.0
  0
LINE
  8
0
 62
     0
 10
1.79351
 20
0.417806
 30
0.0
 11
2.04144
 21
0.398654
 31
0.0
  0
LINE
  8
0
 62
     0
 10
2.04144
 20
0.398654
 30
0.0
 11
2.28711
 21
0.409722
 31
0.0
  0
LINE
  8
0
 62
     0
 10
2.28711
 20
0.409722
 30
0.0
 11
2.53076
 21
0.445856
 31
0.0
  0
LINE
  8
0
 62
     0
 10
2.53076
 20
0.445856
 30
0.0
 11
2.77257
 21
0.501899
 31
0.0
  0
LINE
  8
0
 62
     0
 10
2.77257
 20
0.501899
 30
0.0
 11
2.78381
 21
0.508083
 31
0.0
  0
LINE
  8
0
 62
     0
 10
2.78381
 20
0.508083
 30
0.0
 11
2.7946
 21
0.519043
 31
0.0
  0
LINE
  8
0
 62
     0
 10
2.7946
 20
0.519043
 30
0.0
 11
2.80268
 21
0.532064
 31
0.0
  0
LINE
  8
0
 62
     0
 10
2.80268
 20
0.532064
 30
0.0
 11
2.80604
 21
0.544325
 31
0.0
  0
LINE
  8
0
 62
     0
 10
2.80604
 20
0.544325
 30
0.0
 11
2.80757
 21
1.00071
 31
0.0
  0
LINE
  8
0
 62
     0
 10
1.88189
 20
3.76324
 30
0.0
 11
2.0734
 21
3.75407
 31
0.0
  0
LINE
  8
0
 62
     0
 10
2.0734
 20
3.75407
 30
0.0
 11
2.25993
 21
3.72581
 31
0.0
  0
LINE
  8
0
 62
     0
 10
2.25993
 20
3.72581
 30
0.0
 11
2.44043
 21
3.67953
 31
0.0
  0
LINE
  8
0
 62
     0
 10
2.44043
 20
3.67953
 30
0.0
 11
2.61382
 21
3.61604
 31
0.0
  0
LINE
  8
0
 62
     0
 10
2.61382
 20
3.61604
 30
0.0
 11
2.77908
 21
3.53635
 31
0.0
  0
LINE
  8
0
 62
     0
 10
2.77908
 20
3.53635
 30
0.0
 11
2.93517
 21
3.44135
 31
0.0
  0
LINE
  8
0
 62
     0
 10
2.93517
 20
3.44135
 30
0.0
 11
3.08106
 21
3.33192
 31
0.0
  0
LINE
  8
0
 62
     0
 10
3.08106
 20
3.33192
 30
0.0
 11
3.21571
 21
3.2091
 31
0.0
  0
LINE
  8
0
 62
     0
 10
3.21571
 20
3.2091
 30
0.0
 11
3.33806
 21
3.07368
 31
0.0
  0
LINE
  8
0
 62
     0
 10
3.33806
 20
3.07368
 30
0.0
 11
3.4471
 21
2.92665
 31
0.0
  0
LINE
  8
0
 62
     0
 10
3.4471
 20
2.92665
 30
0.0
 11
3.54178
 21
2.76893
 31
0.0
  0
LINE
  8
0
 62
     0
 10
3.54178
 20
2.76893
 30
0.0
 11
3.6211
 21
2.60146
 31
0.0
  0
LINE
  8
0
 62
     0
 10
3.6211
 20
2.60146
 30
0.0
 11
3.68392
 21
2.42512
 31
0.0
  0
LINE
  8
0
 62
     0
 10
3.68392
 20
2.42512
 30
0.0
 11
3.72933
 21
2.24083
 31
0.0
  0
LINE
  8
0
 62
     0
 10
3.72933
 20
2.24083
 30
0.0
 11
3.75618
 21
2.04958
 31
0.0
  0
LINE
  8
0
 62
     0
 10
3.75618
 20
2.04958
 30
0.0
 11
3.76351
 21
1.85221
 31
0.0
  0
LINE
  8
0
 62
     0
 10
3.76351
 20
1.85221
 30
0.0
 11
3.75142
 21
1.66471
 31
0.0
  0
LINE
  8
0
 62
     0
 10
3.75142
 20
1.66471
 30
0.0
 11
3.72103
 21
1.48178
 31
0.0
  0
LINE
  8
0
 62
     0
 10
3.72103
 20
1.48178
 30
0.0
 11
3.67324
 21
1.30452
 31
0.0
  0
LINE
  8
0
 62
     0
 10
3.67324
 20
1.30452
 30
0.0
 11
3.60883
 21
1.13395
 31
0.0
  0
LINE
  8
0
 62
     0
 10
3.60883
 20
1.13395
 30
0.0
 11
3.52865
 21
0.971192
 31
0.0
  0
LINE
  8
0
 62
     0
 10
3.52865
 20
0.971192
 30
0.0
 11
3.43349
 21
0.817275
 31
0.0
  0
LINE
  8
0
 62
     0
 10
3.43349
 20
0.817275
 30
0.0
 11
3.32417
 21
0.673286
 31
0.0
  0
LINE
  8
0
 62
     0
 10
3.32417
 20
0.673286
 30
0.0
 11
3.20156
 21
0.54031
 31
0.0
  0
LINE
  8
0
 62
     0
 10
3.20156
 20
0.54031
 30
0.0
 11
3.06651
 21
0.419379
 31
0.0
  0
LINE
  8
0
 62
     0
 10
3.06651
 20
0.419379
 30
0.0
 11
2.91976
 21
0.311578
 31
0.0
  0
LINE
  8
0
 62
     0
 10
2.91976
 20
0.311578
 30
0.0
 11
2.76226
 21
0.21799
 31
0.0
  0
LINE
  8
0
 62
     0
 10
2.76226
 20
0.21799
 30
0.0
 11
2.59472
 21
0.139649
 31
0.0
  0
LINE
  8
0
 62
     0
 10
2.59472
 20
0.139649
 30
0.0
 11
2.41803
 21
0.0776367
 31
0.0
  0
LINE
  8
0
 62
     0
 10
2.41803
 20
0.0776367
 30
0.0
 11
2.23301
 21
0.0330404
 31
0.0
  0
LINE
  8
0
 62
     0
 10
2.23301
 20
0.0330404
 30
0.0
 11
2.04047
 21
0.00694444
 31
0.0
  0
LINE
  8
0
 62
     0
 10
2.04047
 20
0.00694444
 30
0.0
 11
1.84131
 21
0.000325521
 31
0.0
  0
LINE
  8
0
 62
     0
 10
1.84131
 20
0.000325521
 30
0.0
 11
1.65588
 21
0.0129666
 31
0.0
  0
LINE
  8
0
 62
     0
 10
1.65588
 20
0.0129666
 30
0.0
 11
1.47456
 21
0.0437825
 31
0.0
  0
LINE
  8
0
 62
     0
 10
1.47456
 20
0.0437825
 30
0.0
 11
1.2985
 21
0.0919054
 31
0.0
  0
LINE
  8
0
 62
     0
 10
1.2985
 20
0.0919054
 30
0.0
 11
1.12874
 21
0.156629
 31
0.0
  0
LINE
  8
0
 62
     0
 10
1.12874
 20
0.156629
 30
0.0
 11
0.966525
 21
0.237142
 31
0.0
  0
LINE
  8
0
 62
     0
 10
0.966525
 20
0.237142
 30
0.0
 11
0.812935
 21
0.332682
 31
0.0
  0
LINE
  8
0
 62
     0
 10
0.812935
 20
0.332682
 30
0.0
 11
0.669108
 21
0.442383
 31
0.0
  0
LINE
  8
0
 62
     0
 10
0.669108
 20
0.442383
 30
0.0
 11
0.536187
 21
0.565483
 31
0.0
  0
LINE
  8
0
 62
     0
 10
0.536187
 20
0.565483
 30
0.0
 11
0.415256
 21
0.701226
 31
0.0
  0
LINE
  8
0
 62
     0
 10
0.415256
 20
0.701226
 30
0.0
 11
0.307508
 21
0.848796
 31
0.0
  0
LINE
  8
0
 62
     0
 10
0.307508
 20
0.848796
 30
0.0
 11
0.214031
 21
1.00743
 31
0.0
  0
LINE
  8
0
 62
     0
 10
0.214031
 20
1.00743
 30
0.0
 11
0.136013
 21
1.17622
 31
0.0
  0
LINE
  8
0
 62
     0
 10
0.136013
 20
1.17622
 30
0.0
 11
0.07449
 21
1.35455
 31
0.0
  0
LINE
  8
0
 62
     0
 10
0.07449
 20
1.35455
 30
0.0
 11
0.0306532
 21
1.54144
 31
0.0
  0
LINE
  8
0
 62
     0
 10
0.0306532
 20
1.54144
 30
0.0
 11
0.00569661
 21
1.73628
 31
0.0
  0
LINE
  8
0
 62
     0
 10
0.00569661
 20
1.73628
 30
0.0
 11
0.000651042
 21
1.9381
 31
0.0
  0
LINE
  8
0
 62
     0
 10
0.000651042
 20
1.9381
 30
0.0
 11
0.01454
 21
2.12181
 31
0.0
  0
LINE
  8
0
 62
     0
 10
0.01454
 20
2.12181
 30
0.0
 11
0.0461154
 21
2.30089
 31
0.0
  0
LINE
  8
0
 62
     0
 10
0.0461154
 20
2.30089
 30
0.0
 11
0.0945637
 21
2.47428
 31
0.0
  0
LINE
  8
0
 62
     0
 10
0.0945637
 20
2.47428
 30
0.0
 11
0.158963
 21
2.64111
 31
0.0
  0
LINE
  8
0
 62
     0
 10
0.158963
 20
2.64111
 30
0.0
 11
0.238607
 21
2.80024
 31
0.0
  0
LINE
  8
0
 62
     0
 10
0.238607
 20
2.80024
 30
0.0
 11
0.332628
 21
2.95079
 31
0.0
  0
LINE
  8
0
 62
     0
 10
0.332628
 20
2.95079
 30
0.0
 11
0.440158
 21
3.09174
 31
0.0
  0
LINE
  8
0
 62
     0
 10
0.440158
 20
3.09174
 30
0.0
 11
0.560439
 21
3.22206
 31
0.0
  0
LINE
  8
0
 62
     0
 10
0.560439
 20
3.22206
 30
0.0
 11
0.6926
 21
3.34082
 31
0.0
  0
LINE
  8
0
 62
     0
 10
0.6926
 20
3.34082
 30
0.0
 11
0.835829
 21
3.44694
 31
0.0
  0
LINE
  8
0
 62
     0
 10
0.835829
 20
3.44694
 30
0.0
 11
0.989367
 21
3.53944
 31
0.0
  0
LINE
  8
0
 62
     0
 10
0.989367
 20
3.53944
 30
0.0
 11
1.15229
 21
3.61735
 31
0.0
  0
LINE
  8
0
 62
     0
 10
1.15229
 20
3.61735
 30
0.0
 11
1.32384
 21
3.67969
 31
0.0
  0
LINE
  8
0
 62
     0
 10
1.32384
 20
3.67969
 30
0.0
 11
1.50315
 21
3.72547
 31
0.0
  0
LINE
  8
0
 62
     0
 10
1.50315
 20
3.72547
 30
0.0
 11
1.68946
 21
3.75364
 31
0.0
  0
LINE
  8
0
 62
     0
 10
1.68946
 20
3.75364
 30
0.0
 11
1.88189
 21
3.76324
 31
0.0
  0
ENDSEC
  0
EOF
